<?xml version="1.0" encoding="utf-8"?>
<!-- Generator: Adobe Illustrator 16.0.0, SVG Export Plug-In . SVG Version: 6.00 Build 0)  -->
<!DOCTYPE svg PUBLIC "-//W3C//DTD SVG 1.1//EN" "http://www.w3.org/Graphics/SVG/1.1/DTD/svg11.dtd">
<svg version="1.1" xmlns="http://www.w3.org/2000/svg" xmlns:xlink="http://www.w3.org/1999/xlink" x="0px" y="0px" width="612px"
	 height="792px" viewBox="0 0 612 792" enable-background="new 0 0 612 792" xml:space="preserve">
<g id="Calque_1">
	<g>
		<path d="M281.972,205.146c15.998,0,31.996,0,47.994,0c4.118,0.487,8.228,1.087,12.357,1.444
			c49.224,4.254,96.554,15.689,140.995,37.702c35.515,17.589,66.985,40.426,90.962,72.51c39.19,52.441,42.211,114.238,8.206,168.676
			c-16.988,27.195-40.029,48.403-66.66,65.864c-44.83,29.396-94.483,45.685-147.175,53.288
			c-58.938,8.504-117.306,5.362-174.837-10.227c-46.862-12.698-90.004-32.877-126.761-65.244
			c-26.41-23.256-46.425-50.846-55.988-85.184c-2.091-7.506-3.393-15.232-5.059-22.857c0-9.332,0-18.664,0-27.996
			c0.474-1.922,0.896-3.86,1.431-5.768c3.31-11.816,5.584-24.057,10.167-35.357c13.318-32.845,36.398-58.188,64.431-79.142
			c48.366-36.152,103.625-54.935,162.803-63.423C257.168,207.666,269.592,206.559,281.972,205.146z M322.986,273.292
			c-71.541,0-119.373,9.204-164.366,29.054c-26.968,11.898-51.359,27.615-69.675,51.299c-15.486,20.028-22.667,42.474-17.734,67.847
			c3.781,19.454,14.039,35.475,27.859,49.265c27.779,27.716,62.248,43.39,99.259,54.194c37.693,11.005,76.291,15.229,115.483,14.51
			c43.277-0.795,85.457-7.655,125.963-23.303c28.871-11.151,55.395-26.127,76.7-49.13c32.813-35.425,34.475-78.712,4.218-116.256
			c-16.438-20.396-37.817-34.478-61.188-45.596C411.082,282.142,359.561,273.648,322.986,273.292z"/>
	</g>
</g>
<g id="Calque_2" display="none">
	<rect x="119.109" y="263.646" display="inline" fill="#FF0000" width="33.391" height="29.708"/>
</g>
</svg>
